PathFileType	4	(X/Y/Z)	/Users/itak/Documents/Research/Walk-IL/dataset/trc/00579_00009.trc
DataRate	CameraRate	NumFrames	NumMarkers	Units	OrigDataRate	OrigDataStartFrame	OrigNumFrames
100.000000	100.000000	4	55	mm	100.000000	446	510
Frame#	Time	RPSI			LPSI			L3			STRN			T10			C7			CLAV			RBAK			LBAK			LSHO			LUPA			LAEL			LAOL			LWTS			LWPS			LFRA			LHTS			RSHO			RUPA			RAEL			RAOL			RWTS			RWPS			RFRA			RIFD			RHTS			RHPS			RBHD			LFHD			RFHD			LBHD			LHIP			RHIP			RASI			LASI			LKNE			LTHI			LANK			LTIP			LTOE			LMT1			LMT5			LHEE			RKNE			RTHI			RANK			RTIP			RTOE			RMT1			RMT5			RHEE			LHPS			LIFD			*53			*54			
		X1	Y1	Z1	X2	Y2	Z2	X3	Y3	Z3	X4	Y4	Z4	X5	Y5	Z5	X6	Y6	Z6	X7	Y7	Z7	X8	Y8	Z8	X9	Y9	Z9	X10	Y10	Z10	X11	Y11	Z11	X12	Y12	Z12	X13	Y13	Z13	X14	Y14	Z14	X15	Y15	Z15	X16	Y16	Z16	X17	Y17	Z17	X18	Y18	Z18	X19	Y19	Z19	X20	Y20	Z20	X21	Y21	Z21	X22	Y22	Z22	X23	Y23	Z23	X24	Y24	Z24	X25	Y25	Z25	X26	Y26	Z26	X27	Y27	Z27	X28	Y28	Z28	X29	Y29	Z29	X30	Y30	Z30	X31	Y31	Z31	X32	Y32	Z32	X33	Y33	Z33	X34	Y34	Z34	X35	Y35	Z35	X36	Y36	Z36	X37	Y37	Z37	X38	Y38	Z38	X39	Y39	Z39	X40	Y40	Z40	X41	Y41	Z41	X42	Y42	Z42	X43	Y43	Z43	X44	Y44	Z44	X45	Y45	Z45	X46	Y46	Z46	X47	Y47	Z47	X48	Y48	Z48	X49	Y49	Z49	X50	Y50	Z50	X51	Y51	Z51	X52	Y52	Z52	X53	Y53	Z53	X54	Y54	Z54	X55	Y55	Z55	

447	4.46	780.8514404296875	1010.578796386719	-229.5872955322266	657.22900390625	1018.713012695312	-280.1790466308594	719.4230346679688	1107.617309570312	-259.2072143554688	797.2735595703125	1299.508056640625	-470.618408203125	716.2255249023438	1232.72900390625	-243.53857421875	749.7676391601562	1507.487426757812	-277.9851379394531	793.10009765625	1410.216064453125	-449.3490905761719	806.2539672851562	1378.775634765625	-186.6156768798828	651.1854248046875	1457.139892578125	-275.9591979980469	602.6471557617188	1484.2783203125	-393.7906188964844	523.8399658203125	1357.081420898438	-409.8644104003906	509.5890502929688	1138.621826171875	-445.6603698730469	537.7254028320312	1123.357055664062	-348.2063903808594	592.4306030273438	912.0641479492188	-547.569580078125	513.063720703125	882.2022094726562	-528.6583862304688	512.7596435546875	1055.5625	-477.2574768066406	582.3524780273438	836.3595581054688	-576.7836303710938	915.1697998046875	1465.622802734375	-285.2922058105469	972.3178100585938	1399.350952148438	-248.0107727050781	1009.072448730469	1108.756591796875	-235.5660400390625	965.7732543945312	1089.83056640625	-190.4515533447266	1012.923400878906	892.406982421875	-380.54052734375	1058.627563476562	869.7820434570312	-316.5174255371094	1018.692138671875	1053.529418945312	-243.7949981689453	1008.480712890625	723.2318725585938	-397.20068359375	1036.105224609375	801.3218383789062	-403.8839721679688	1062.393432617188	796.5057983398438	-334.7859191894531	844.4276733398438	1684.5341796875	-327.6794128417969	753.4357299804688	1716.399169921875	-512.2371215820312	887.351806640625	1711.911376953125	-458.2456359863281	691.9486083984375	1688.44482421875	-396.0677490234375	580.9501342773438	945.6846313476562	-448.7061157226562	938.3413696289062	935.5436401367188	-302.4013061523438	915.3812255859375	972.3092041015625	-402.7887573242188	657.1959838867188	970.3207397460938	-503.1585998535156	631.9790649414062	499.2008361816406	-473.1606140136719	602.721435546875	667.001708984375	-477.2776794433594	582.6646728515625	38.54272079467773	-353.5765991210938	593.4188842773438	258.8861999511719	-391.8597412109375	699.8027954101562	41.77267456054688	-536.7189331054688	712.2396240234375	42.69898223876953	-456.3692016601562	606.7244873046875	40.04018783569336	-472.8867492675781	613.6097412109375	39.14308547973633	-271.3574829101562	881.5357666015625	495.9034423828125	-369.9924011230469	939.4223022460938	783.9105224609375	-352.7598266601562	815.9660034179688	41.19289398193359	-262.6188659667969	858.6799926757812	351.6375427246094	-368.6236267089844	808.5564575195312	41.11471176147461	-487.9085693359375	758.152099609375	42.50461959838867	-431.585205078125	856.087158203125	40.00604629516602	-390.4910888671875	751.7967529296875	36.10933303833008	-218.0861511230469	527.2467041015625	823.1312866210938	-538.8717041015625	602.9028930664062	744.0891723632812	-557.82568359375	nan	nan	nan	nan	nan	nan	
448	4.47	780.8668212890625	1010.843627929688	-230.6091003417969	657.2559814453125	1019.054626464844	-281.086181640625	719.4754028320312	1107.744506835938	-260.1265258789062	797.2073364257812	1299.577880859375	-471.517822265625	716.20703125	1232.864990234375	-244.3787078857422	749.6533203125	1507.57958984375	-278.9396667480469	793.0748291015625	1410.297241210938	-450.2711181640625	806.0806884765625	1378.895629882812	-187.5730285644531	651.1246337890625	1457.227783203125	-276.9451293945312	602.6256103515625	1484.39208984375	-394.77685546875	523.6470947265625	1357.291381835938	-410.8058471679688	509.0028381347656	1138.7822265625	-446.2970275878906	537.2333984375	1123.637084960938	-348.859375	591.1449584960938	911.6717529296875	-547.6458740234375	511.6582946777344	882.1210327148438	-528.6349487304688	511.9292297363281	1055.650634765625	-477.7075805664062	580.7538452148438	835.856201171875	-576.5590209960938	915.0719604492188	1465.755615234375	-286.1449890136719	972.1427612304688	1399.498779296875	-248.6817474365234	1008.315307617188	1108.883178710938	-235.1314392089844	964.806884765625	1090.186767578125	-190.0511474609375	1012.308166503906	891.7410888671875	-379.0206909179688	1057.734008789062	869.3792114257812	-314.7033081054688	1017.86767578125	1053.607543945312	-243.0832672119141	1007.627319335938	722.3154907226562	-394.9264526367188	1035.275390625	800.4090576171875	-401.6792602539062	1061.367919921875	795.9676513671875	-332.5223388671875	844.1919555664062	1684.607299804688	-328.374755859375	753.2988891601562	1716.681640625	-512.9791870117188	887.255859375	1712.24072265625	-458.97265625	691.6325073242188	1688.490478515625	-396.8290100097656	580.7776489257812	945.8836669921875	-449.4320678710938	938.2313232421875	935.6490478515625	-303.4365539550781	915.3037109375	972.3514404296875	-403.9192199707031	656.957763671875	970.383056640625	-503.969970703125	631.1795654296875	499.2266845703125	-472.3947448730469	601.9961547851562	667.0415649414062	-476.9734802246094	582.6055908203125	38.40663146972656	-353.6151733398438	593.11767578125	258.8838195800781	-391.4922485351562	699.7716064453125	41.7293815612793	-536.7991943359375	712.211669921875	42.75646209716797	-456.4198303222656	606.6304321289062	39.95215606689453	-472.9324340820312	613.5742797851562	39.08198547363281	-271.3800354003906	881.2359619140625	495.9227294921875	-369.6644287109375	939.5150756835938	783.8421020507812	-353.2633056640625	815.9451293945312	41.20842361450195	-262.6213684082031	858.4747924804688	351.7762145996094	-368.3098754882812	808.5518188476562	41.15248489379883	-487.8569641113281	758.1202392578125	42.48406982421875	-431.5691528320312	856.0052490234375	40.00974273681641	-390.4782409667969	751.7742919921875	36.03122711181641	-218.0590362548828	525.6575317382812	822.9778442382812	-538.6786499023438	601.04296875	743.6463623046875	-557.3381958007812	nan	nan	nan	nan	nan	nan	
449	4.48	780.8585205078125	1011.1142578125	-231.6366271972656	657.2338256835938	1019.376403808594	-281.9722900390625	719.463623046875	1107.8583984375	-261.0256042480469	797.1097412109375	1299.623779296875	-472.4140319824219	716.1519775390625	1232.985595703125	-245.2020874023438	749.5444946289062	1507.670776367188	-279.8872680664062	793.01953125	1410.355346679688	-451.1884765625	805.9173583984375	1378.986572265625	-188.5149230957031	651.0459594726562	1457.278198242188	-277.890625	602.565673828125	1484.48095703125	-395.7167663574219	523.4273681640625	1357.467895507812	-411.6937255859375	508.3623962402344	1138.92431640625	-446.8908996582031	536.6932373046875	1123.884521484375	-349.4514465332031	589.7620239257812	911.2591552734375	-547.697998046875	510.1376647949219	882.0128173828125	-528.5602416992188	511.0401000976562	1055.717651367188	-478.1213989257812	579.04345703125	835.3326416015625	-576.3267211914062	914.9700927734375	1465.87158203125	-287.0177001953125	971.9721069335938	1399.6416015625	-249.3736267089844	1007.602478027344	1109.011108398438	-234.7022094726562	963.9164428710938	1090.541870117188	-189.6407470703125	1011.649230957031	891.1008911132812	-377.5254211425781	1056.84228515625	868.9931030273438	-312.955078125	1017.0859375	1053.68603515625	-242.3852233886719	1006.717651367188	721.4381713867188	-392.7168884277344	1034.389526367188	799.5354614257812	-399.53955078125	1060.318603515625	795.4509887695312	-330.3358764648438	843.9249877929688	1684.659423828125	-329.0586242675781	753.1248779296875	1716.936645507812	-513.7026977539062	887.1229858398438	1712.556030273438	-459.6823120117188	691.3145751953125	1688.51708984375	-397.5761413574219	580.563720703125	946.027099609375	-450.1156921386719	938.0878295898438	935.7581176757812	-304.4613952636719	915.178466796875	972.3675537109375	-405.0221252441406	656.6893920898438	970.3989868164062	-504.7648010253906	630.4104614257812	499.1975708007812	-471.6224365234375	601.241455078125	667.0239868164062	-476.6548461914062	582.607421875	38.29389953613281	-353.637939453125	592.8654174804688	258.8387451171875	-391.0861206054688	699.7540893554688	41.68156051635742	-536.87255859375	712.2012939453125	42.78152084350586	-456.4597473144531	606.572998046875	39.8885383605957	-472.9697570800781	613.5730590820312	39.00262069702148	-271.3869018554688	880.9525146484375	495.9632568359375	-369.3381958007812	939.5565185546875	783.7276000976562	-353.746337890625	815.9298095703125	41.22439956665039	-262.6249084472656	858.2582397460938	351.9045715332031	-367.9798278808594	808.546875	41.18374633789062	-487.8069458007812	758.0819702148438	42.45016098022461	-431.5469665527344	855.9234619140625	40.01325225830078	-390.4674377441406	751.7548217773438	35.95169448852539	-218.02783203125	523.9857788085938	822.816162109375	-538.463134765625	599.0706787109375	743.1752319335938	-556.8583374023438	nan	nan	nan	nan	nan	nan	
450	4.49	780.8433227539062	1011.376037597656	-232.6805419921875	657.1697998046875	1019.669799804688	-282.8434753417969	719.3823852539062	1107.9462890625	-261.9088745117188	796.9808349609375	1299.64306640625	-473.3095397949219	716.064697265625	1233.08447265625	-246.0205993652344	749.443115234375	1507.760620117188	-280.8265991210938	792.9300537109375	1410.386596679688	-452.0980224609375	805.7582397460938	1379.046264648438	-189.4339752197266	650.9448852539062	1457.290405273438	-278.7942810058594	602.4641723632812	1484.540893554688	-396.6089782714844	523.185546875	1357.599975585938	-412.5164794921875	507.6748962402344	1139.043212890625	-447.4459228515625	536.1107177734375	1124.10693359375	-349.982421875	588.2902221679688	910.8182983398438	-547.7291259765625	508.5079650878906	881.8700561523438	-528.4358520507812	510.1015930175781	1055.756591796875	-478.5035095214844	577.2367553710938	834.7833862304688	-576.0940551757812	914.8634033203125	1465.960693359375	-287.9074401855469	971.8028564453125	1399.76806640625	-250.0866088867188	1006.938720703125	1109.127319335938	-234.2958068847656	963.109130859375	1090.88330078125	-189.237548828125	1010.943542480469	890.4702758789062	-376.0618896484375	1055.95947265625	868.6132202148438	-311.2876892089844	1016.351501464844	1053.75390625	-241.7159118652344	1005.759643554688	720.5878295898438	-390.5855407714844	1033.455200195312	798.68896484375	-397.4779052734375	1059.259033203125	794.9468383789062	-328.2417602539062	843.6314697265625	1684.689819335938	-329.7372741699219	752.9140014648438	1717.158569335938	-514.404296875	886.9496459960938	1712.850952148438	-460.370361328125	691.00634765625	1688.524047851562	-398.3139343261719	580.3070678710938	946.1115112304688	-450.7559814453125	937.920654296875	935.866455078125	-305.4768981933594	915.0123291015625	972.35693359375	-406.0985107421875	656.4007568359375	970.3660888671875	-505.549560546875	629.6880493164062	499.1154174804688	-470.8418273925781	600.49365234375	666.9522705078125	-476.33837890625	582.666259765625	38.20714569091797	-353.6415100097656	592.6605224609375	258.7525634765625	-390.6497192382812	699.7546997070312	41.62392807006836	-536.9393310546875	712.20849609375	42.77479553222656	-456.4858703613281	606.5504150390625	39.85088348388672	-472.99560546875	613.6029052734375	38.90529251098633	-271.3760375976562	880.6844482421875	496.0213928222656	-369.0337219238281	939.5301513671875	783.5674438476562	-354.2274475097656	815.9203491210938	41.24444198608398	-262.6307983398438	858.0191040039062	352.0108642578125	-367.6410827636719	808.5420532226562	41.21025848388672	-487.7614135742188	758.0386352539062	42.40493774414062	-431.5188293457031	855.8455200195312	40.02017974853516	-390.4562683105469	751.7387084960938	35.87185287475586	-217.9925384521484	522.2276000976562	822.6356201171875	-538.21240234375	596.9867553710938	742.6640625	-556.3892822265625	nan	nan	nan	nan	nan	nan	
